# xmcd
#
# Track frame offsets:
#   150
#   15980
#   30687
#   45870
#   60900
#   75915
#   91860
#   107520
#   123005
#   135592
#   150337
#   163902
#   177947
#   193327
#
# Disc length: 2775 seconds
#
# Revision: 0
# Processed by: cddbd v1.5.2PL0 Copyright (c) Steve Scherf et al.
# Submitted via: uFREEDB ActiveX Control 1.5
#
DISCID=940ad50e
DTITLE=Banda Styllus - Flertes
DYEAR=1999
DGENRE=forró
TTITLE0=1-fertes
TTITLE1=2-lágrimas de amor
TTITLE2=3-vem me amar
TTITLE3=4-liga pra mim
TTITLE4=5-obsessão
TTITLE5=6-uma chance
TTITLE6=7-atração
TTITLE7=8-só pra mim 
TTITLE8=9-meu jeito de ser
TTITLE9=10-raiz poderosa (instrumental)
TTITLE10=11-fogo do desejo
TTITLE11=12-vaqueiro bom
TTITLE12=sem medo de amar
TTITLE13=14-
EXTD=
EXTT0=
EXTT1=
EXTT2=
EXTT3=
EXTT4=
EXTT5=
EXTT6=
EXTT7=
EXTT8=
EXTT9=
EXTT10=
EXTT11=
EXTT12=
EXTT13=
PLAYORDER=
